{"accessors" : [{"bufferView" : 0, "byteOffset" : 0, "componentType" : 5123, "count" : 36906, "type" : "SCALAR", "max" : [29528], "min" : [0]}, {"bufferView" : 1, "byteOffset" : 0, "componentType" : 5126, "count" : 29529, "type" : "VEC3", "max" : [160, 160, 43], "min" : [0, 0, 0], "name" : "POSITION"}], "asset" : {"generator" : "Aspose.3D 21.12", "version" : "2.0"}, "buffers" : [{"uri" : "data:application/octet-stream;base64,", "byteLength" : 516692}], "bufferViews" : [{"buffer" : 0, "byteOffset" : 0, "byteLength" : 73812, "target" : 34963}, {"buffer" : 0, "byteOffset" : 73816, "byteLength" : 442872, "byteStride" : 12, "target" : 34962}], "materials" : [{"pbrMetallicRoughness" : {"baseColorFactor" : [0.5882352941176471, 0.5882352941176471, 0.5882352941176471, 1], "metallicFactor" : 1, "roughnessFactor" : 1}, "emissiveFactor" : [0, 0, 0], "alphaMode" : "OPAQUE", "doubleSided" : false}], "meshes" : [{"primitives" : [{"attributes" : {"POSITION" : 1}, "indices" : 0, "material" : 0, "mode" : 4}]}], "nodes" : [{"matrix" : [1, 0, 0, 0, 0, -9.765077635393027E-12, -1.000000000009765, 0, 0, 1.000000000009765, -9.765077635393027E-12, 0, 0, 0, 0, 1], "mesh" : 0, "name" : "Node #0"}], "scene" : 0, "scenes" : [{"nodes" : [0]}]}